<?xml version="1.0" encoding="utf-8"?>
<!-- Generator: Adobe Illustrator 27.5.0, SVG Export Plug-In . SVG Version: 6.00 Build 0)  -->
<svg version="1.1" xmlns="http://www.w3.org/2000/svg" xmlns:xlink="http://www.w3.org/1999/xlink" x="0px" y="0px"
	 viewBox="0 0 500 500" style="enable-background:new 0 0 500 500;" xml:space="preserve">
<g id="BACKGROUND">
	<rect style="fill:#FFFFFF;" width="500" height="500"/>
</g>
<g id="OBJECTS">
	<ellipse style="fill:#F7E9E9;" cx="247.424" cy="438.549" rx="151.232" ry="12"/>
	<g>
		<path style="fill:#F2DBDD;" d="M291.395,401.911c-21.05,0.728-46.634,2.603-72.644,2.23
			c-42.143-0.576-85.395-7.014-112.224-33.612c-13.954-13.842-20.105-33.674-23.495-53.03
			c-10.846-61.96,3.349-127.474,36.885-180.554c9.269-14.685,20.021-28.422,32.131-40.862c4.846-4.977,9.901-9.75,15.175-14.295
			c4.495-3.869,9.187-7.599,14.069-11.097c7.894-5.67,16.255-10.757,24.958-14.918c17.983-8.617,37.408-13.309,57.127-11.141
			c40.513,4.459,68.659,34.471,89.98,67.544c6.672,10.352,12.68,21.003,18.185,31.267c4.16,7.755,8.066,15.647,11.714,23.662
			c7.936,17.405,14.662,35.358,20.154,53.687c7.924,26.419,13.291,53.611,16.079,81.042c1.479,14.531,1.845,30.727-1.777,45.296
			c-3.433,13.852-10.48,26.228-23.607,34.296C363.828,400.035,325.809,400.712,291.395,401.911z"/>
		<path style="fill:#FDFAFA;" d="M378.23,232.309c-55.605,17.657-121.654-6.371-152.916-55.622
			c-17.044-26.851-23.91-58.712-35.798-88.211c-2.412-5.984-5.143-11.967-8.223-17.785c7.894-5.67,16.255-10.757,24.958-14.918
			c8.505,12.764,15.948,26.296,25.014,38.688c22.53,30.792,55.221,54.022,91.711,65.155c19.464,5.943,39.948,8.433,60.28,7.487
			c7.936,17.405,14.662,35.358,20.154,53.687C395.618,225.727,387.032,229.518,378.23,232.309z"/>
		<path style="fill:#FDFAFA;" d="M291.395,401.911c-21.05,0.728-46.634,2.603-72.644,2.23
			c-31.307-24.349-55.419-57.896-68.358-95.403c-14.83-42.998-14.995-89.457-22.12-134.377c-1.985-12.472-4.682-25.119-8.355-37.416
			c9.269-14.685,20.021-28.422,32.131-40.862c7.676,15.143,13.15,31.789,17.165,48.146c9.288,37.828,13.5,77.717,32.189,111.898
			c16.347,29.909,43.525,53.74,75.309,66.036c30.71,11.883,64.316,13.012,97.032,16.784c14.714,1.695,29.675,4.1,43.969,8.183
			c-3.433,13.852-10.48,26.228-23.607,34.296C363.828,400.035,325.809,400.712,291.395,401.911z"/>
		
			<ellipse transform="matrix(0.4115 -0.9114 0.9114 0.4115 -36.3533 511.8934)" style="fill:#FDFAFA;" cx="378.23" cy="284.098" rx="19.359" ry="19.359"/>
		<path style="fill:#FDFAFA;" d="M305.639,306.259c-6.547,1.999-13.474-1.688-15.472-8.235c-1.998-6.546,1.688-13.474,8.235-15.472
			c6.547-1.998,13.474,1.688,15.472,8.235C315.872,297.333,312.185,304.26,305.639,306.259z"/>
	</g>
	<path style="fill:#020B2A;" d="M321.147,415.818c0.052,0.323-0.408,0.445-0.514,0.125c-0.094-0.281-0.186-0.563-0.267-0.847
		c-0.016-0.013-0.031-0.028-0.047-0.042c-0.263-0.216-0.259-0.491-0.127-0.71c-0.014-0.077-0.03-0.153-0.041-0.23
		c-0.076-0.566-0.1-1.129-0.112-1.699c-0.025-1.173,0.149-2.345,0.408-3.488c0.544-2.404,1.48-4.713,2.282-7.038
		c2.897-8.4,3.353-17.416,2.513-26.207c-0.882-9.223-3.168-18.236-5.43-27.196c-0.054-0.216-0.002-0.395,0.103-0.531
		c-1.002-3.824-1.013-7.948-0.813-11.833c0.246-4.75,0.843-9.48,0.892-14.24c0.024-2.284-0.072-4.581-0.427-6.84
		c-0.389-2.474-1.153-4.83-1.955-7.195c-0.844-2.487-1.521-4.964-1.878-7.571c-0.353-2.578-0.538-5.177-0.995-7.742
		c-0.436-2.451-1.059-4.868-1.859-7.225c-0.48-1.412-1.041-2.783-1.645-4.138c-0.079-0.12-0.158-0.24-0.225-0.371
		c-0.155-0.302-0.316-0.599-0.484-0.894c-1.39-2.444-2.845-4.863-4.486-7.148c-1.561-2.173-3.296-4.211-5.147-6.141
		c-3.446-3.595-7.23-6.842-10.783-10.328c-3.507-3.44-6.832-7.169-9.161-11.527c-2.533-4.739-3.56-10.04-5.354-15.063
		c-0.899-2.517-2.033-4.957-3.625-7.116c-1.556-2.11-3.527-3.913-5.742-5.31c-0.104-0.066-0.172-0.148-0.221-0.237
		c-0.091,0.046-0.18,0.096-0.271,0.141c-1.544,0.762-3.155,1.396-4.808,1.878c-0.81,0.237-1.63,0.437-2.458,0.599
		c-0.425,0.083-0.851,0.157-1.279,0.22c-0.474,0.07-0.867,0.065-1.34-0.004c-0.558-0.081-0.411-0.831,0-0.988
		c0.882-0.338,1.856-0.393,2.781-0.592c0.888-0.192,1.767-0.427,2.632-0.703c1.762-0.563,3.461-1.302,5.078-2.202
		c2.886-1.605,5.481-3.707,7.628-6.218c1.149-1.344,2.196-2.823,2.887-4.459c0.628-1.488,0.916-3.088,0.957-4.696
		c1.637,0.566,3.204,1.292,4.801,1.957c0.268,0.112,0.431-0.318,0.193-0.459c-1.525-0.907-3.222-1.526-4.908-2.064
		c-0.031-0.01-0.057-0.009-0.085-0.009c-0.001-0.04,0.001-0.079,0-0.118c-0.015-0.847-0.098-1.684-0.218-2.516
		c1.267-0.115,2.538-0.188,3.809-0.209c1.081-0.019,2.162,0.004,3.242,0.055c1.091,0.051,2.254,0.235,3.336,0.042
		c0.318-0.057,0.402-0.589,0.095-0.721c-1.027-0.442-2.248-0.469-3.351-0.517c-1.133-0.049-2.267-0.042-3.4,0.006
		c-1.304,0.055-2.602,0.185-3.893,0.37c-0.158-0.845-0.353-1.683-0.579-2.515c0.306-0.114,0.611-0.232,0.918-0.342
		c1.278-0.458,2.564-0.898,3.86-1.304c2.594-0.812,5.227-1.493,7.885-2.062c0.727-0.156,1.456-0.298,2.186-0.44
		c0.377-0.073,0.751-0.155,1.126-0.238c0.385-0.085,0.796-0.136,1.132-0.354c0.314-0.204,0.277-0.712-0.106-0.815
		c-0.622-0.167-1.4,0.037-2.026,0.131c-0.685,0.102-1.365,0.238-2.044,0.376c-1.357,0.276-2.706,0.587-4.046,0.937
		c-2.652,0.692-5.283,1.502-7.847,2.472c-0.452,0.171-0.9,0.353-1.35,0.532c-0.395-1.323-0.839-2.634-1.271-3.936
		c-0.616-1.853-1.216-3.717-1.633-5.627c-0.208-0.957-0.367-1.94-0.434-2.918c-0.022-0.321-0.033-0.645-0.036-0.969
		c-0.381-0.006-0.746-0.298-0.588-0.766c0.227-0.672,0.463-1.34,0.703-2.008c1.895-5.293,3.79-10.586,5.685-15.879
		c0.948-2.646,1.895-5.293,2.842-7.939c0.932-2.602,1.938-5.192,2.713-7.847c0.725-2.483,1.252-5.156,0.84-7.745
		c-0.134-0.84-0.421-1.804-1.094-2.376c-0.903-0.767-2.032-0.05-2.9,0.412c-4.844,2.58-9.644,5.243-14.398,7.985
		c-2.365,1.365-4.717,2.754-7.061,4.153c-1.161,0.693-2.32,1.39-3.475,2.093c-1.121,0.682-2.222,1.401-3.395,1.99
		c-0.018,0.039-0.032,0.08-0.058,0.113c-0.197,0.255-0.493,0.272-0.77,0.154c-0.666-0.284-1.277-0.697-1.91-1.049
		c-0.614-0.342-1.235-0.671-1.862-0.988c-1.245-0.629-2.514-1.213-3.806-1.74c-4.604-1.879-9.475-3.142-14.417-3.709
		c-2.489-0.286-4.998-0.401-7.503-0.346c-2.287,0.051-4.546,0.333-6.82,0.503c-0.164,0.396-0.768,0.568-1.088,0.1
		c-1.486-2.171-2.84-4.426-4.364-6.575c-2.673-3.769-5.59-7.363-8.726-10.757c-1.553-1.682-3.16-3.315-4.816-4.895
		c-1.355-1.292-2.956-2.741-4.91-2.804c-1.18,2.427-1.501,5.153-1.641,7.821c-0.145,2.758-0.216,5.518-0.373,8.276
		c-0.162,2.861-0.365,5.719-0.611,8.574c-0.243,2.828-0.537,5.652-0.869,8.472c-0.168,1.423-0.371,2.842-0.573,4.26
		c-0.201,1.414-0.567,2.791-0.802,4.197c-0.026,0.156-0.149,0.233-0.284,0.248c-1.433,4.215-2.866,8.437-4.129,12.707
		c-0.547,1.85-1.058,3.71-1.542,5.577c-0.914-0.43-1.834-0.846-2.77-1.226c-1.321-0.537-2.68-1.015-4.082-1.294
		c-0.694-0.138-1.411-0.234-2.119-0.236c-0.658-0.002-1.478,0.032-2.063,0.364c-0.267,0.151-0.202,0.558,0.084,0.641
		c0.643,0.188,1.39,0.141,2.055,0.214c0.648,0.07,1.287,0.172,1.924,0.308c1.349,0.289,2.656,0.747,3.933,1.265
		c0.919,0.372,1.825,0.776,2.725,1.194c-0.241,0.958-0.474,1.917-0.698,2.879c-0.9-0.065-1.807-0.058-2.708,0.031
		c-1.075,0.105-2.143,0.311-3.179,0.614c-1.013,0.296-2.058,0.682-2.9,1.334c-0.371,0.287,0.036,0.866,0.438,0.754
		c0.962-0.268,1.88-0.7,2.837-0.99c0.961-0.291,1.946-0.495,2.943-0.612c0.775-0.091,1.556-0.114,2.337-0.104
		c-0.131,0.58-0.267,1.159-0.392,1.741c-0.153,0.712-0.321,1.435-0.47,2.162c-1.249,0.273-2.475,0.641-3.665,1.11
		c-0.792,0.312-1.569,0.662-2.321,1.06c-0.738,0.391-1.577,0.831-2.159,1.438c-0.23,0.24-0.003,0.734,0.349,0.6
		c0.756-0.29,1.45-0.766,2.17-1.139c0.767-0.397,1.546-0.771,2.347-1.092c1.006-0.404,2.041-0.729,3.091-0.991
		c-0.186,1.085-0.295,2.178-0.213,3.268c0.147,1.958,1.129,3.726,2.186,5.335c1.596,2.43,3.454,4.687,5.516,6.738
		c0.026,0.052,0.045,0.104,0.086,0.155c2.69,3.339,5.388,6.885,6.774,10.966c0.027,0.641,0.021,1.284-0.027,1.927
		c-0.963,12.859-12.074,21.157-18.375,31.44c-7.614,12.425-5.472,27.434-2.174,40.884c1.8,7.341,4.169,14.538,7.064,21.52
		c2.694,6.497,5.821,12.963,6.965,19.963c0.559,3.419,0.58,6.854-0.005,10.271c-0.6,3.502-1.755,6.88-3.008,10.195
		c-2.544,6.736-5.658,13.592-5.489,20.949c0.088,3.827,1.297,7.271,3.259,10.528c1.971,3.271,4.185,6.409,6.295,9.592
		c4.246,6.406,8.492,12.812,12.737,19.218c0.813,0.522,1.229,1.587,1.173,2.549c-0.087,1.496-1.186,2.596-2.429,3.3
		c-1.357,0.769-2.863,1.304-4.289,1.93c-1.579,0.694-3.154,1.4-4.718,2.127c-2.941,1.365-5.921,2.742-8.717,4.39
		c-1.161,0.684-2.279,1.455-3.209,2.439c-0.963,1.019-1.591,2.231-1.877,3.604c-0.322,1.545-0.336,3.195-0.27,4.767
		c0.065,1.56,0.308,3.142,0.92,4.589c0.038,0.091,0.059,0.185,0.068,0.278c0.031,0.027,0.061,0.055,0.091,0.08
		c0.003,0.002,0,0,0.004,0.003c0.016,0.011,0.032,0.022,0.048,0.034c0.037,0.025,0.074,0.048,0.11,0.072
		c0.037,0.024,0.075,0.048,0.113,0.071c0.02,0.012,0.078,0.033,0.003,0.009c-0.109-0.035,0.066,0.028,0.054,0.023
		c0.099,0.042,0.198,0.091,0.293,0.14c0.036,0.019,0.073,0.036,0.111,0.054c0.01,0.003,0.019,0.008,0.028,0.011
		c0.01,0.004,0.021,0.005,0.031,0.008c0.029,0.005,0.058,0.011,0.087,0.017c0,0,0,0,0.001,0c0.027,0.002,0.055,0.005,0.082,0.008
		c0.02,0.002,0.039,0.002,0.059,0.003c0.091-0.097,0.231-0.15,0.357-0.133c0.085,0.011,0.161,0.047,0.222,0.1
		c0.038-0.008,0.077-0.016,0.114-0.026c0.095-0.024,0.197-0.053,0.295-0.051c0.029,0,0.059,0.01,0.089,0.014
		c0.305-0.029,0.616-0.026,0.91-0.001c0.129,0.011,0.257,0.033,0.386,0.049c-0.59-2.224-0.316-4.675,0.665-6.737
		c0.59-1.24,1.406-2.343,2.236-3.429c0.417-0.545,0.832-1.092,1.264-1.627c0.227-0.281,0.448-0.568,0.659-0.862
		c0.183-0.256,0.339-0.524,0.589-0.721c0.139-0.11,0.413-0.059,0.394,0.163c-0.057,0.659-0.521,1.307-0.846,1.868
		c-0.345,0.595-0.743,1.155-1.138,1.717c-1.47,2.091-2.857,4.231-2.887,6.876c-0.012,1.027,0.155,2.101,0.518,3.082
		c0.153,0.119,0.226,0.313,0.216,0.511c0.034,0.073,0.057,0.151,0.094,0.222c0.127,0.248,0.305,0.256,0.573,0.299
		c0.364,0.058,0.73,0.109,1.095,0.164c0.365,0.055,0.73,0.109,1.095,0.164c0.196,0.029,0.393,0.051,0.583,0.095
		c0.186-0.531,0.393-1.055,0.651-1.557c0.589-1.143,1.426-2.154,2.418-2.97c3.781-3.109,9.096-3.534,12.776-6.78
		c4.842-4.271,5.032-11.272,4.561-17.223c-0.54-6.815-1.474-13.607-2.703-20.331c-1.241-6.787-2.843-13.496-4.598-20.167
		c-0.057-0.216,0.259-0.298,0.331-0.091c0.276,0.797,0.545,1.596,0.808,2.397c2.113,6.443,3.695,13.074,4.957,19.733
		c0.633,3.336,1.154,6.695,1.602,10.06c0.448,3.362,0.833,6.747,1.017,10.135c0.321,5.883-0.494,12.66-5.354,16.658
		c-1.908,1.57-4.202,2.513-6.471,3.43c-2.136,0.864-4.398,1.716-6.17,3.235c-0.958,0.821-1.708,1.806-2.238,2.953
		c-0.315,0.682-0.54,1.407-0.73,2.133c-0.192,0.733-0.43,1.527-0.456,2.287c-0.026,0.764,0.47,1.216,1.022,1.667
		c0.567,0.463,1.174,0.878,1.801,1.254c1.255,0.751,2.599,1.313,4.008,1.698c0.064-0.55,0.193-1.103,0.335-1.605
		c0.239-0.847,0.581-1.669,0.99-2.448c0.815-1.551,1.928-2.935,3.156-4.177c0.652-0.66,1.36-1.267,2.082-1.848
		c0.718-0.577,1.492-1.059,2.226-1.606c0.293-0.218,0.646,0.26,0.385,0.499c-0.679,0.62-1.315,1.305-1.986,1.939
		c-0.638,0.603-1.264,1.217-1.875,1.848c-2.051,2.119-3.88,4.822-4.066,7.855c-0.017,0.27-0.056,0.577,0.175,0.762
		c0.195,0.156,0.512,0.196,0.751,0.229c0.85,0.118,1.719,0.161,2.575,0.209c0.849,0.048,1.699,0.078,2.55,0.088
		c0.452,0.005,0.904,0.005,1.356-0.001c0.069-0.001,0.153,0.002,0.241,0.004c0.167-0.027,0.334-0.057,0.503-0.074
		c0.029-0.013,0.062-0.021,0.086-0.04c0.272-0.216,0.592-0.18,0.797-0.01c1.013-0.022,2.039,0.065,3.011,0.101
		c2.869,0.106,5.739,0.176,8.609,0.209c5.741,0.067,11.484-0.012,17.221-0.236c11.48-0.448,23.017-1.355,34.374-3.125
		c5.382-0.839,10.741-1.985,15.87-3.843c4.301-1.558,8.418-3.617,12.268-6.087c7.786-4.996,14.378-11.689,19.468-19.401
		c0.298-0.451,1.007-0.047,0.73,0.427c-1.102,1.882-2.296,3.709-3.624,5.44c-5.423,7.073-12.346,12.946-20.199,17.162
		c-4.156,2.231-8.556,3.976-13.099,5.242c-5.164,1.439-10.467,2.297-15.777,2.985c-11.153,1.447-22.389,2.307-33.63,2.626
		c-5.615,0.159-11.233,0.179-16.848,0.06c-2.701-0.057-5.411-0.261-8.112-0.254c-0.295,0.001-0.633,0.015-0.984,0.051
		c-0.178,0.046-0.37,0.068-0.565,0.081c-1.324,0.238-2.602,0.871-2.273,2.429c0.237,1.12,1.116,2.121,1.858,2.952
		c0.741,0.83,1.563,1.59,2.443,2.271c1.755,1.359,3.731,2.425,5.758,3.316c4.218,1.855,8.756,3.089,13.234,4.135
		c9.034,2.11,18.334,3.019,27.606,2.784c9.28-0.235,18.523-1.62,27.464-4.115c8.97-2.503,17.623-6.119,25.669-10.813
		c3.995-2.331,7.952-4.871,11.466-7.89c3.566-3.063,6.632-6.745,8.122-11.265c0.816-2.474,1.25-5.074,1.535-7.659
		c0.226-2.044,0.321-4.11,0.189-6.164C324.781,422.108,323.738,418.433,321.147,415.818z"/>
</g>
</svg>
